<?xml version="1.0" encoding="UTF-8" standalone="no"?>
<!-- Created with Inkscape (http://www.inkscape.org/) -->

<svg
   width="130"
   height="130"
   viewBox="0 0 34.395833 34.395833"
   version="1.1"
   id="svg5"
   inkscape:version="1.1.2 (b8e25be833, 2022-02-05)"
   sodipodi:docname="logo.svg"
   xmlns:inkscape="http://www.inkscape.org/namespaces/inkscape"
   xmlns:sodipodi="http://sodipodi.sourceforge.net/DTD/sodipodi-0.dtd"
   xmlns="http://www.w3.org/2000/svg"
   xmlns:svg="http://www.w3.org/2000/svg">
  <sodipodi:namedview
     id="namedview7"
     pagecolor="#505050"
     bordercolor="#eeeeee"
     borderopacity="1"
     inkscape:pageshadow="0"
     inkscape:pageopacity="0"
     inkscape:pagecheckerboard="0"
     inkscape:document-units="px"
     showgrid="false"
     units="px"
     inkscape:zoom="4.1424077"
     inkscape:cx="72.783758"
     inkscape:cy="82.439978"
     inkscape:window-width="1920"
     inkscape:window-height="1017"
     inkscape:window-x="-8"
     inkscape:window-y="-8"
     inkscape:window-maximized="1"
     inkscape:current-layer="layer1" />
  <defs
     id="defs2" />
  <g
     inkscape:label="Layer 1"
     inkscape:groupmode="layer"
     id="layer1">
    <circle
       style="fill:none;stroke:#be14d9;stroke-width:1.32292;stroke-miterlimit:4;stroke-dasharray:none;stroke-opacity:1"
       id="path996"
       cx="17.197918"
       cy="17.19792"
       r="16.404167" />
    <text
       xml:space="preserve"
       style="font-size:10.5833px;line-height:1.25;font-family:'CaskaydiaCove Nerd Font Mono';-inkscape-font-specification:'CaskaydiaCove Nerd Font Mono';stroke-width:0.264583"
       x="13.23312"
       y="14.271898"
       id="text5792"><tspan
         sodipodi:role="line"
         id="tspan5790"
         style="stroke-width:0.264583"
         x="13.23312"
         y="14.271898" /></text>
    <path
       style="fill:#be14d9;fill-opacity:0.71486753;stroke:#6d0b75;stroke-width:0.264583;stroke-linecap:butt;stroke-linejoin:miter;stroke-miterlimit:4;stroke-dasharray:none;stroke-opacity:1"
       d="M 13.363742,24.73626 V 9.6595742 h 9.697238 l -0.538736,2.6922668 h -6.464825 v 4.307623 h 4.309883 l -0.538735,2.692265 -3.771148,-4e-6 v 5.384535 z"
       id="path13693"
       sodipodi:nodetypes="ccccccccccc" />
    <path
       style="fill:#be14d9;fill-opacity:0.69653773;stroke:#6d0b75;stroke-width:0.26549;stroke-linejoin:round;stroke-miterlimit:4;stroke-dasharray:none;stroke-opacity:1"
       d="M 15.130183,34.186552 C 11.226644,33.664654 7.8235997,31.99039 5.1055592,29.254525 1.6494453,25.775748 -0.07345479,21.26687 0.15238262,16.291921 0.46718111,9.3572585 5.1861049,3.1648094 11.833871,0.96278595 c 1.844176,-0.61086962 3.256921,-0.82892581 5.377631,-0.83003307 1.642712,-8.5767e-4 2.284209,0.0658341 3.746374,0.38948346 4.83151,1.06945206 9.05441,4.33558266 11.391271,8.81038626 2.200019,4.2127654 2.520193,9.2640464 0.872632,13.7672214 -0.552873,1.511124 -1.632457,3.430091 -2.683277,4.769527 -0.599789,0.764528 -2.238694,2.355058 -3.064222,2.973777 -2.326258,1.74349 -4.83477,2.803245 -7.776526,3.285299 -0.881153,0.144388 -3.657985,0.179716 -4.567571,0.0581 z m 3.105968,-1.18665 c 3.884175,-0.276249 7.392889,-1.866256 10.111351,-4.582059 2.40776,-2.4054 3.975763,-5.509151 4.489581,-8.886801 0.233731,-1.536475 0.19157,-3.689137 -0.103013,-5.259564 C 31.60529,8.2539369 27.041125,3.3742861 21.127155,1.8622664 19.895897,1.547472 19.031634,1.4326601 17.615582,1.3957766 16.220895,1.3594496 15.351651,1.4271191 14.119354,1.6679537 10.950235,2.2873119 7.9205829,3.9575194 5.7171004,6.3000073 3.3794965,8.7850776 1.9561422,11.809019 1.4819143,15.297735 c -0.133537,0.982382 -0.1018016,3.12719 0.062163,4.201236 0.5080946,3.328259 1.9561746,6.285882 4.2358885,8.651573 2.9981228,3.111192 6.8325952,4.784395 11.2394152,4.904402 0.176111,0.0048 0.723658,-0.01998 1.21677,-0.05504 z"
       id="path34257" />
    <path
       style="fill:#f2d5fb;fill-opacity:1;stroke:#6d0b75;stroke-width:0.241406;stroke-linejoin:round;stroke-miterlimit:4;stroke-dasharray:none;stroke-opacity:1"
       d="M 58.178725,123.85937 C 47.138969,122.4494 37.443263,118.4903 28.96866,111.93187 26.257825,109.83398 21.153147,104.82857 18.956614,102.11453 12.640112,94.309843 8.2591395,84.451347 6.5331485,74.158022 6.0709282,71.40147 5.8184229,64.462921 6.0440281,60.717568 6.635225,50.902894 10.108908,40.761309 15.802364,32.227634 25.590704,17.556314 41.071122,8.1317042 58.656872,6.1374449 61.89285,5.7704786 70.9489,5.9811125 74.207577,6.4991373 90.520284,9.0923337 105.37587,18.760719 114.48157,32.710445 c 14.34877,21.981999 12.41476,50.982614 -4.72741,70.887885 -9.39468,10.90898 -21.650094,17.67088 -36.265778,20.00955 -3.306751,0.52912 -12.015749,0.67218 -15.309657,0.25149 z M 61.316997,83.888411 V 73.74938 h 7.068075 7.068076 l 1.056443,-5.371272 c 0.581044,-2.9542 1.105536,-5.507063 1.16554,-5.67303 0.08591,-0.237639 -1.64038,-0.301756 -8.124519,-0.301756 h -8.233615 v -7.604274 -7.604273 h 12.190978 c 6.705037,0 12.190977,-0.03399 12.190977,-0.07553 0,-0.04154 0.488846,-2.506098 1.086325,-5.476798 0.597479,-2.9707 1.086325,-5.489576 1.086325,-5.597501 0,-0.107928 -8.527649,-0.196231 -18.950332,-0.196231 H 49.970938 V 64.938077 94.02744 h 5.67303 5.673029 z"
       id="path34422"
       transform="scale(0.26458333)" />
  </g>
</svg>
